<svg version="1.1"
     baseProfile="full"
     width="800px" height="200px"
     viewBox="-100 0 200 50"
     xmlns="http://www.w3.org/2000/svg">

    <g transform="translate(-90 11) scale(0.01 -0.01) translate(0 -2000)">
        <path opacity="1" d="M128 128h1024v128h-1024v-128zM128 640h1024v128h-1024v-128zM1696 192q0 40 -28 68t-68 28t-68 -28t-28 -68t28 -68t68 -28t68 28t28 68zM128 1152h1024v128h-1024v-128zM1696 704q0 40 -28 68t-68 28t-68 -28t-28 -68t28 -68t68 -28t68 28t28 68zM1696 1216
q0 40 -28 68t-68 28t-68 -28t-28 -68t28 -68t68 -28t68 28t28 68zM1792 384v-384h-1792v384h1792zM1792 896v-384h-1792v384h1792zM1792 1408v-384h-1792v384h1792z" />
    </g>
    <g transform="translate(75 10) scale(0.01 -0.01) translate(0 -2000)">
        <path opacity="1" d="M1468 1156q28 -28 48 -76t20 -88v-1152q0 -40 -28 -68t-68 -28h-1344q-40 0 -68 28t-28 68v1600q0 40 28 68t68 28h896q40 0 88 -20t76 -48zM1024 1400v-376h376q-10 29 -22 41l-313 313q-12 12 -41 22zM1408 -128v1024h-416q-40 0 -68 28t-28 68v416h-768v-1536h1280z
M384 736q0 14 9 23t23 9h704q14 0 23 -9t9 -23v-64q0 -14 -9 -23t-23 -9h-704q-14 0 -23 9t-9 23v64zM1120 512q14 0 23 -9t9 -23v-64q0 -14 -9 -23t-23 -9h-704q-14 0 -23 9t-9 23v64q0 14 9 23t23 9h704zM1120 256q14 0 23 -9t9 -23v-64q0 -14 -9 -23t-23 -9h-704
q-14 0 -23 9t-9 23v64q0 14 9 23t23 9h704z" />
    </g>
    <g>
        <path d="M 20 25 l 45 0" stroke="#004B6B" stroke-width="4" stroke-linecap="round"/>
        <path d="M 25 30 l -7 -5 l 7 -5" fill="#004B6B" stroke="#004B6B" stroke-width="4" stroke-linecap="round" stroke-linejoin="miter"/>
    </g>
    <g transform="scale(-1 1)">
        <path d="M 20 25 l 45 0" stroke="#004B6B" stroke-width="4" stroke-linecap="round"/>
        <path d="M 25 30 l -7 -5 l 7 -5" fill="#004B6B" stroke="#004B6B" stroke-width="4" stroke-linecap="round" stroke-linejoin="miter"/>
    </g>
    <g transform="translate(0 55) scale(50 50) translate(0 0)">
    <path d="M -0.09 -0.91 A 0.09 0.025 0 1 1 0.09 -0.91 A 0.09 0.025 0 1 1 -0.09 -0.91 Z" fill="none" stroke-width="0.02" stroke="black"/>
    <path d="M -0.1 -0.91 A 0.1 0.025 0 1 0 0.1 -0.91 L 0.1 -0.81 A 0.1 0.025 0 1 1 -0.1 -0.81 Z" fill="black"/>
    <path d="M -0.1 -0.75 A 0.1 0.025 0 1 0 0.1 -0.75 Q 0.1 -0.7 0.125 -0.65 A 0.125 0.04 0 1 1 -0.125 -0.65 Q -0.1 -0.7 -0.1 -0.75 Z" fill="black"/>
    <path d="M -0.15 -0.6 A 0.15 0.055 0 1 0 0.15 -0.6 L 0.2 -0.5 A 0.2 0.085 0 1 1 -0.2 -0.5 Z" fill="black"/>
    <path d="M -0.225 -0.45 A 0.225 0.095 0 1 0 0.225 -0.45 Q 0.275 -0.35 0.225 -0.3 A 0.25 0.125 0 0 1 -0.225 -0.3 Q -0.275 -0.35 -0.225 -0.45" fill="black"/>
    </g>

</svg>
