<svg version="1.1"
     baseProfile="full"
     width="800px" height="200px"
     viewBox="0 9 200 50"
     xmlns="http://www.w3.org/2000/svg">
<defs>
    <linearGradient id="linear" x1="0%" y1="0%" x2="100%" y2="0%">
      <stop offset="0%"   stop-color="#004B6B"/>
      <stop offset="100%" stop-color="white"/>
    </linearGradient>
  </defs>
    <path d="M 10 25 l 36 -10 l 36 15 l 36 -10 l 36 5" stroke="#004B6B" stroke-width="3" fill="none"/>
    <rect x="157" y="23.5" width="36" height="3" fill="url(#linear)"/>
    <circle cx="10" cy="25" r="5" />
    <circle cx="46" cy="15" r="5" />
    <circle cx="82" cy="30" r="5" />
    <circle cx="118" cy="20" r="5" />
    <circle cx="154" cy="25" r="5" />

    <g transform="translate(3 33) scale(0.01 -0.01) translate(0 -2000)">
        <path opacity="0.75" d="M1024 1024v472q22 -14 36 -28l408 -408q14 -14 28 -36h-472zM896 992q0 -40 28 -68t68 -28h544v-1056q0 -40 -28 -68t-68 -28h-1344q-40 0 -68 28t-28 68v1600q0 40 28 68t68 28h800v-544z" />
    </g>
    <g transform="translate(39 33) scale(0.01 -0.01) translate(0 -2000)">
        <path opacity="0.75" d="M640 960q0 -80 -56 -136t-136 -56t-136 56t-56 136t56 136t136 56t136 -56t56 -136zM1664 576v-448h-1408v192l320 320l160 -160l512 512zM1760 1280h-1600q-13 0 -22.5 -9.5t-9.5 -22.5v-1216q0 -13 9.5 -22.5t22.5 -9.5h1600q13 0 22.5 9.5t9.5 22.5v1216
q0 13 -9.5 22.5t-22.5 9.5zM1920 1248v-1216q0 -66 -47 -113t-113 -47h-1600q-66 0 -113 47t-47 113v1216q0 66 47 113t113 47h1600q66 0 113 -47t47 -113z" />
    </g>
    <g transform="translate(76 33) scale(0.01 -0.01) translate(0 -2000)">
        <path opacity="0.75" d="M1280 137q0 -109 -62.5 -187t-150.5 -78h-854q-88 0 -150.5 78t-62.5 187q0 85 8.5 160.5t31.5 152t58.5 131t94 89t134.5 34.5q131 -128 313 -128t313 128q76 0 134.5 -34.5t94 -89t58.5 -131t31.5 -152t8.5 -160.5zM1024 1024q0 -159 -112.5 -271.5t-271.5 -112.5
t-271.5 112.5t-112.5 271.5t112.5 271.5t271.5 112.5t271.5 -112.5t112.5 -271.5z" />
    </g>
    <g transform="translate(112 33) scale(0.01 -0.01) translate(0 -2000)">
        <path opacity="0.75" d="M768 896q0 106 -75 181t-181 75t-181 -75t-75 -181t75 -181t181 -75t181 75t75 181zM1024 896q0 -109 -33 -179l-364 -774q-16 -33 -47.5 -52t-67.5 -19t-67.5 19t-46.5 52l-365 774q-33 70 -33 179q0 212 150 362t362 150t362 -150t150 -362z" />
    </g>
    <g transform="translate(148 33) scale(0.01 -0.01) translate(0 -2000)">
        <path opacity="0.75" d="M1792 640q0 -174 -120 -321.5t-326 -233t-450 -85.5q-70 0 -145 8q-198 -175 -460 -242q-49 -14 -114 -22q-17 -2 -30.5 9t-17.5 29v1q-3 4 -0.5 12t2 10t4.5 9.5l6 9t7 8.5t8 9q7 8 31 34.5t34.5 38t31 39.5t32.5 51t27 59t26 76q-157 89 -247.5 220t-90.5 281
q0 130 71 248.5t191 204.5t286 136.5t348 50.5q244 0 450 -85.5t326 -233t120 -321.5z" />
    </g>
</svg>