<?xml version="1.0" standalone="no"?>
<svg viewBox="-0.365 -0.95 0.73 0.73" version="1.1" xmlns="http://www.w3.org/2000/svg" width="256px" height="256px">
    <path d="M -0.09 -0.91 A 0.09 0.025 0 1 1 0.09 -0.91 A 0.09 0.025 0 1 1 -0.09 -0.91 Z" fill="none" stroke-width="0.02" stroke="black"/>
    <path d="M -0.1 -0.91 A 0.1 0.025 0 1 0 0.1 -0.91 L 0.1 -0.81 A 0.1 0.025 0 1 1 -0.1 -0.81 Z" fill="black"/>
    <path d="M -0.1 -0.75 A 0.1 0.025 0 1 0 0.1 -0.75 Q 0.1 -0.7 0.125 -0.65 A 0.125 0.04 0 1 1 -0.125 -0.65 Q -0.1 -0.7 -0.1 -0.75 Z" fill="black"/>
    <path d="M -0.15 -0.6 A 0.15 0.055 0 1 0 0.15 -0.6 L 0.2 -0.5 A 0.2 0.085 0 1 1 -0.2 -0.5 Z" fill="black"/>
    <path d="M -0.225 -0.45 A 0.225 0.095 0 1 0 0.225 -0.45 Q 0.275 -0.35 0.225 -0.3 A 0.25 0.125 0 0 1 -0.225 -0.3 Q -0.275 -0.35 -0.225 -0.45" fill="black"/>
</svg>
