<svg version="1.1"
     baseProfile="full"
     width="800px" height="200px"
     viewBox="0 9 200 50"
     xmlns="http://www.w3.org/2000/svg">

    <g transform="translate(2.5 33) scale(0.01 -0.01) translate(0 -2000)">
        <path opacity="0.75" d="M1792 192v-128q0 -26 -19 -45t-45 -19h-1664q-26 0 -45 19t-19 45v128q0 26 19 45t45 19h1664q26 0 45 -19t19 -45zM1408 576v-128q0 -26 -19 -45t-45 -19h-1280q-26 0 -45 19t-19 45v128q0 26 19 45t45 19h1280q26 0 45 -19t19 -45zM1664 960v-128q0 -26 -19 -45
t-45 -19h-1536q-26 0 -45 19t-19 45v128q0 26 19 45t45 19h1536q26 0 45 -19t19 -45zM1280 1344v-128q0 -26 -19 -45t-45 -19h-1152q-26 0 -45 19t-19 45v128q0 26 19 45t45 19h1152q26 0 45 -19t19 -45z" />
    </g>
    <g transform="translate(47.5 33) scale(0.01 -0.01) translate(0 -2000)">
        <path opacity="0.75" d="M1408 606v-318q0 -119 -84.5 -203.5t-203.5 -84.5h-832q-119 0 -203.5 84.5t-84.5 203.5v832q0 119 84.5 203.5t203.5 84.5h832q63 0 117 -25q15 -7 18 -23q3 -17 -9 -29l-49 -49q-10 -10 -23 -10q-3 0 -9 2q-23 6 -45 6h-832q-66 0 -113 -47t-47 -113v-832
q0 -66 47 -113t113 -47h832q66 0 113 47t47 113v254q0 13 9 22l64 64q10 10 23 10q6 0 12 -3q20 -8 20 -29zM1639 1095l-814 -814q-24 -24 -57 -24t-57 24l-430 430q-24 24 -24 57t24 57l110 110q24 24 57 24t57 -24l263 -263l647 647q24 24 57 24t57 -24l110 -110
q24 -24 24 -57t-24 -57z" />
    </g>
    <g transform="translate(137.5 33) scale(0.01 -0.01) translate(0 -2000)">
        <path opacity="0.75" d="M512 160v192q0 14 -9 23t-23 9h-320q-14 0 -23 -9t-9 -23v-192q0 -14 9 -23t23 -9h320q14 0 23 9t9 23zM512 544v192q0 14 -9 23t-23 9h-320q-14 0 -23 -9t-9 -23v-192q0 -14 9 -23t23 -9h320q14 0 23 9t9 23zM1024 160v192q0 14 -9 23t-23 9h-320q-14 0 -23 -9t-9 -23
v-192q0 -14 9 -23t23 -9h320q14 0 23 9t9 23zM512 928v192q0 14 -9 23t-23 9h-320q-14 0 -23 -9t-9 -23v-192q0 -14 9 -23t23 -9h320q14 0 23 9t9 23zM1024 544v192q0 14 -9 23t-23 9h-320q-14 0 -23 -9t-9 -23v-192q0 -14 9 -23t23 -9h320q14 0 23 9t9 23zM1536 160v192
q0 14 -9 23t-23 9h-320q-14 0 -23 -9t-9 -23v-192q0 -14 9 -23t23 -9h320q14 0 23 9t9 23zM1024 928v192q0 14 -9 23t-23 9h-320q-14 0 -23 -9t-9 -23v-192q0 -14 9 -23t23 -9h320q14 0 23 9t9 23zM1536 544v192q0 14 -9 23t-23 9h-320q-14 0 -23 -9t-9 -23v-192
q0 -14 9 -23t23 -9h320q14 0 23 9t9 23zM1536 928v192q0 14 -9 23t-23 9h-320q-14 0 -23 -9t-9 -23v-192q0 -14 9 -23t23 -9h320q14 0 23 9t9 23zM1664 1248v-1088q0 -66 -47 -113t-113 -47h-1344q-66 0 -113 47t-47 113v1088q0 66 47 113t113 47h1344q66 0 113 -47t47 -113
z" />
    </g>
    <g transform="translate(182 33) scale(0.01 -0.01) translate(0 -2000)">
        <path opacity="0.75" d="M1216 512q133 0 226.5 -93.5t93.5 -226.5t-93.5 -226.5t-226.5 -93.5t-226.5 93.5t-93.5 226.5q0 12 2 34l-360 180q-92 -86 -218 -86q-133 0 -226.5 93.5t-93.5 226.5t93.5 226.5t226.5 93.5q126 0 218 -86l360 180q-2 22 -2 34q0 133 93.5 226.5t226.5 93.5
t226.5 -93.5t93.5 -226.5t-93.5 -226.5t-226.5 -93.5q-126 0 -218 86l-360 -180q2 -22 2 -34t-2 -34l360 -180q92 86 218 86z" />
    </g>
    <g transform="translate(100 60) scale(50 50) translate(0 0)">
    <path d="M -0.09 -0.91 A 0.09 0.025 0 1 1 0.09 -0.91 A 0.09 0.025 0 1 1 -0.09 -0.91 Z" fill="none" stroke-width="0.02" stroke="black"/>
    <path d="M -0.1 -0.91 A 0.1 0.025 0 1 0 0.1 -0.91 L 0.1 -0.81 A 0.1 0.025 0 1 1 -0.1 -0.81 Z" fill="black"/>
    <path d="M -0.1 -0.75 A 0.1 0.025 0 1 0 0.1 -0.75 Q 0.1 -0.7 0.125 -0.65 A 0.125 0.04 0 1 1 -0.125 -0.65 Q -0.1 -0.7 -0.1 -0.75 Z" fill="black"/>
    <path d="M -0.15 -0.6 A 0.15 0.055 0 1 0 0.15 -0.6 L 0.2 -0.5 A 0.2 0.085 0 1 1 -0.2 -0.5 Z" fill="black"/>
    <path d="M -0.225 -0.45 A 0.225 0.095 0 1 0 0.225 -0.45 Q 0.275 -0.35 0.225 -0.3 A 0.25 0.125 0 0 1 -0.225 -0.3 Q -0.275 -0.35 -0.225 -0.45" fill="black"/>
    </g>
</svg>
