<svg version="1.1"
     baseProfile="full"
     width="800px" height="200px"
     viewBox="-12.5 2 200 50"
     xmlns="http://www.w3.org/2000/svg">

    <g transform="translate(-10 0) scale(0.01 -0.01) translate(0 -2000)">
        <path opacity="0.1" d="M1024 1024v472q22 -14 36 -28l408 -408q14 -14 28 -36h-472zM896 992q0 -40 28 -68t68 -28h544v-1056q0 -40 -28 -68t-68 -28h-1344q-40 0 -68 28t-28 68v1600q0 40 28 68t68 28h800v-544z" />
    </g>
    <g transform="translate(10 4) scale(0.01 -0.01) translate(0 -2000)">
        <path opacity="0.2" d="M1024 1024v472q22 -14 36 -28l408 -408q14 -14 28 -36h-472zM896 992q0 -40 28 -68t68 -28h544v-1056q0 -40 -28 -68t-68 -28h-1344q-40 0 -68 28t-28 68v1600q0 40 28 68t68 28h800v-544z" />
    </g>
    <g transform="translate(30 7) scale(0.01 -0.01) translate(0 -2000)">
        <path opacity="0.3" d="M1024 1024v472q22 -14 36 -28l408 -408q14 -14 28 -36h-472zM896 992q0 -40 28 -68t68 -28h544v-1056q0 -40 -28 -68t-68 -28h-1344q-40 0 -68 28t-28 68v1600q0 40 28 68t68 28h800v-544z" />
    </g>
    <g transform="translate(50 9) scale(0.01 -0.01) translate(0 -2000)">
        <path opacity="0.4" d="M1024 1024v472q22 -14 36 -28l408 -408q14 -14 28 -36h-472zM896 992q0 -40 28 -68t68 -28h544v-1056q0 -40 -28 -68t-68 -28h-1344q-40 0 -68 28t-28 68v1600q0 40 28 68t68 28h800v-544z" />
    </g>
    <g transform="translate(68 -11.5) scale(0.0275 -0.0275) translate(0 -2000)">
        <path opacity="1.0" d="M1152 704q0 185 -131.5 316.5t-316.5 131.5t-316.5 -131.5t-131.5 -316.5t131.5 -316.5t316.5 -131.5t316.5 131.5t131.5 316.5zM1664 -128q0 -52 -38 -90t-90 -38q-54 0 -90 38l-343 342q-179 -124 -399 -124q-143 0 -273.5 55.5t-225 150t-150 225t-55.5 273.5
t55.5 273.5t150 225t225 150t273.5 55.5t273.5 -55.5t225 -150t150 -225t55.5 -273.5q0 -220 -124 -399l343 -343q37 -37 37 -90z" />
    </g>
    <g transform="translate(80 10) scale(0.01 -0.01) translate(0 -2000)">
        <path opacity="1.0" fill="#004B6B" stroke="#004B6B" d="M1024 1024v472q22 -14 36 -28l408 -408q14 -14 28 -36h-472zM896 992q0 -40 28 -68t68 -28h544v-1056q0 -40 -28 -68t-68 -28h-1344q-40 0 -68 28t-28 68v1600q0 40 28 68t68 28h800v-544z" />
    </g>
    <g transform="translate(110 9) scale(0.01 -0.01) translate(0 -2000)">
        <path opacity="0.4" d="M1024 1024v472q22 -14 36 -28l408 -408q14 -14 28 -36h-472zM896 992q0 -40 28 -68t68 -28h544v-1056q0 -40 -28 -68t-68 -28h-1344q-40 0 -68 28t-28 68v1600q0 40 28 68t68 28h800v-544z" />
    </g>
    <g transform="translate(130 7) scale(0.01 -0.01) translate(0 -2000)">
        <path opacity="0.3" d="M1024 1024v472q22 -14 36 -28l408 -408q14 -14 28 -36h-472zM896 992q0 -40 28 -68t68 -28h544v-1056q0 -40 -28 -68t-68 -28h-1344q-40 0 -68 28t-28 68v1600q0 40 28 68t68 28h800v-544z" />
    </g>
    <g transform="translate(150 4) scale(0.01 -0.01) translate(0 -2000)">
        <path opacity="0.2" d="M1024 1024v472q22 -14 36 -28l408 -408q14 -14 28 -36h-472zM896 992q0 -40 28 -68t68 -28h544v-1056q0 -40 -28 -68t-68 -28h-1344q-40 0 -68 28t-28 68v1600q0 40 28 68t68 28h800v-544z" />
    </g>
    <g transform="translate(170 0) scale(0.01 -0.01) translate(0 -2000)">
        <path opacity="0.1" d="M1024 1024v472q22 -14 36 -28l408 -408q14 -14 28 -36h-472zM896 992q0 -40 28 -68t68 -28h544v-1056q0 -40 -28 -68t-68 -28h-1344q-40 0 -68 28t-28 68v1600q0 40 28 68t68 28h800v-544z" />
    </g>
</svg>
